# xmcd
#
# Track frame offsets:
#	150
#	17625
#	29802
#	41347
#	54640
#	67722
#	80572
#	91550
#	105292
#	122025
#	134010
#	147612
#	160609
#	174477
#	188900
#	202082
#
# Disc length: 2930 seconds
#
# Revision: 1
# Processed by: cddbd v1.5.2PL0 Copyright (c) Steve Scherf et al.
# Submitted via: audiograbber 1.83.01
#
DISCID=d70b7010
DTITLE=Varios - Mi Discoteca Recuerdos Inolvidables
DYEAR=1999
DGENRE=Popular
TTITLE0=Luciano Y Concholon - El Enterrador
TTITLE1=Ramirez Y Arias - La Nieve De Los Años
TTITLE2=Ramirez Y Arias - Tan Mia Y Tan Ajena
TTITLE3=Antonio Tormo - Ocultame Esos Ojos
TTITLE4=Olimpo Cardenas - Calabozo De Mis Penas
TTITLE5=Arboleda Y Valencia - El Camino De La Vida
TTITLE6=Trio Martino - Triunfamos
TTITLE7=Dueto De Antaño - Las Acacias
TTITLE8=Hermanos Martinez - Lamparilla
TTITLE9=Hermanos Martinez - Yo Tambien Tuve 20 Años
TTITLE10=Gomez Y Villegas - Quiero Ser En Tu Vida
TTITLE11=Carlos Arturo - Evocacion
TTITLE12=Conjunto Manabi - El Aguacate
TTITLE13=Garzon Y Collazos - Me Llevaras En Ti
TTITLE14=Hernando Y Yesid - Los Libros
TTITLE15=Fausto - Soñando Con El Abuelo
EXTD=
EXTT0=
EXTT1=
EXTT2=
EXTT3=
EXTT4=
EXTT5=
EXTT6=
EXTT7=
EXTT8=
EXTT9=
EXTT10=
EXTT11=
EXTT12=
EXTT13=
EXTT14=
EXTT15=
PLAYORDER=
